<?xml version="1.0" standalone="no"?>
<!DOCTYPE svg PUBLIC "-//W3C//DTD SVG 20010904//EN"
 "http://www.w3.org/TR/2001/REC-SVG-20010904/DTD/svg10.dtd">
<svg version="1.0" xmlns="http://www.w3.org/2000/svg"
 width="1019.000000pt" height="1019.000000pt" viewBox="0 0 1019.000000 1019.000000"
 preserveAspectRatio="xMidYMid meet">
<metadata>
Created by potrace 1.11, written by Peter Selinger 2001-2013
</metadata>
<g transform="translate(0.000000,1019.000000) scale(0.100000,-0.100000)"
fill="#000000" stroke="none">
<path d="M1608 7222 c-41 -3 -42 -9 -20 -65 7 -16 12 -33 12 -38 0 -5 -90 -9
-220 -9 -202 0 -220 -1 -221 -17 -1 -18 -1 -124 0 -175 1 -27 2 -27 59 -25
l57 2 0 59 0 59 368 0 c202 0 370 -2 373 -6 3 -3 6 -29 7 -58 l2 -54 56 -2 56
-2 0 109 1 110 -198 0 -198 0 -22 60 c-20 54 -25 60 -49 58 -14 -2 -43 -4 -63
-6z"/>
<path d="M488 7212 l-27 -3 16 -40 c8 -22 12 -43 9 -47 -4 -4 -107 -7 -229 -8
-122 -1 -224 -2 -227 -3 -3 0 -4 -20 -4 -43 l1 -43 157 -2 c87 0 159 -3 162
-6 3 -2 -15 -8 -40 -11 l-46 -7 35 -52 35 -52 -120 -3 c-106 -2 -120 -5 -120
-20 -1 -27 -1 -645 -1 -664 1 -15 11 -18 56 -18 45 0 55 3 56 18 1 9 1 107 2
216 0 192 1 199 18 178 9 -12 19 -28 22 -35 3 -8 16 -5 45 11 l42 23 1 -23 c0
-13 0 -76 0 -140 l0 -118 210 0 209 0 1 53 c0 28 1 94 0 145 0 50 3 92 7 92 4
0 24 -11 44 -25 l37 -25 17 25 c9 14 19 25 23 25 5 0 7 -190 2 -267 -1 -28
-29 -37 -118 -35 -40 1 -73 0 -73 -3 0 -2 5 -26 10 -53 l11 -49 105 3 c116 4
136 11 164 57 19 30 20 53 20 330 l0 297 -126 0 -126 0 36 49 c20 27 36 51 36
54 0 4 -16 9 -35 13 -74 13 -38 19 116 17 l159 -2 0 47 0 47 -202 0 c-112 -1
-211 1 -220 3 -10 2 -18 12 -18 22 0 9 -5 31 -11 49 -12 34 -20 35 -121 23z
m210 -197 c2 -2 -13 -30 -35 -62 l-40 -58 -79 -2 -79 -2 -42 64 -42 64 27 3
c38 4 285 -1 290 -7z m-303 -241 c-43 -36 -175 -124 -185 -124 -4 0 -8 33 -7
73 l0 74 111 0 111 1 -30 -24z m224 -10 c-18 -18 -31 -35 -28 -38 2 -2 35 -24
73 -50 57 -38 65 -46 45 -47 -30 -1 -321 -1 -332 0 -5 1 18 22 52 47 33 25 63
49 66 54 3 4 -9 18 -25 31 -16 13 -30 27 -30 30 0 3 48 6 106 6 l106 1 -33
-34z m266 -36 c0 -38 -3 -68 -7 -68 -9 0 -208 129 -208 134 0 3 48 4 107 3
l108 -2 0 -67z m-230 -255 c1 -61 0 -63 -25 -64 -28 -1 -169 -1 -185 0 -6 1
-10 30 -10 66 l-1 66 110 -3 110 -3 1 -62z"/>
<path d="M2773 7194 c-17 -7 -34 -18 -37 -23 -4 -5 13 -39 36 -74 24 -36 48
-73 53 -82 10 -16 14 -16 53 6 23 13 43 26 44 30 5 9 -96 159 -107 158 -5 0
-24 -7 -42 -15z"/>
<path d="M3049 7133 c-23 -43 -52 -92 -63 -108 l-21 -31 -132 1 -133 0 0 -51
0 -51 78 -1 c42 0 86 -1 98 -1 20 -1 21 -7 21 -81 1 -92 17 -82 -139 -82 l-88
1 0 -55 0 -54 110 0 c61 0 110 -2 110 -5 0 -23 -47 -137 -68 -165 -40 -53 -99
-107 -148 -136 -48 -29 -48 -31 5 -93 l29 -35 27 18 c82 54 175 164 204 242
l17 44 29 -61 c29 -64 144 -190 197 -218 30 -16 40 -10 71 46 24 44 22 50 -25
74 -85 44 -179 165 -202 262 l-6 27 123 0 124 0 2 54 1 53 -98 1 c-53 0 -111
0 -129 1 l-31 1 -1 80 0 80 27 1 c15 1 64 1 110 1 90 0 84 -5 84 68 0 11 0 24
-1 28 0 5 -29 8 -63 7 -35 -1 -66 0 -70 2 -4 2 6 23 21 46 15 23 40 63 54 88
l27 45 -48 17 c-26 9 -50 17 -54 17 -4 0 -26 -35 -49 -77z"/>
<path d="M3865 7043 c1 -195 -15 -275 -70 -348 l-25 -32 46 -32 c43 -32 46
-32 60 -15 21 29 74 135 74 151 0 11 25 13 128 11 l127 -3 -4 -25 c-5 -36 -16
-40 -109 -40 -82 0 -83 0 -76 -22 21 -68 13 -64 122 -63 110 2 145 15 162 61
6 14 10 131 10 260 l0 234 -223 0 -222 0 0 -137z m338 22 c0 -17 -1 -35 -2
-41 -1 -8 -37 -12 -116 -12 l-115 0 0 42 0 42 117 -1 117 0 -1 -30z m-2 -134
c4 -1 4 -42 0 -72 -1 -4 -207 -4 -233 0 -3 1 -5 9 -3 19 2 9 4 26 4 37 1 19 7
20 114 19 61 -1 115 -2 118 -3z"/>
<path d="M3399 7152 c0 -10 -1 -123 -1 -252 l-1 -235 181 0 c100 0 182 2 183
5 1 7 1 439 0 471 l-1 26 -180 1 c-161 0 -180 -2 -181 -16z m262 -93 c1 -11 1
-30 1 -44 0 -58 4 -56 -79 -53 l-77 3 -1 57 -2 57 51 3 c78 5 106 -1 107 -23z
m0 -199 c1 -11 1 -31 1 -45 0 -67 4 -63 -77 -62 -46 0 -75 5 -76 11 -4 31 -5
102 -1 109 2 4 37 7 78 7 67 0 74 -2 75 -20z"/>
<path d="M2241 7145 c-4 -5 -7 -26 -7 -45 1 -31 4 -35 29 -38 l27 -3 0 -315
c0 -202 -4 -314 -10 -315 -5 -1 -14 -3 -20 -4 -5 -1 -15 -3 -21 -4 -10 -1 -11
-69 -1 -98 4 -12 11 -12 170 21 l112 22 1 -25 c1 -14 2 -53 3 -86 l1 -60 48
-3 47 -3 0 98 0 99 31 2 c44 3 44 4 47 60 l2 49 -40 -4 -40 -5 0 287 0 286 28
-3 c25 -3 27 -1 29 39 1 24 -3 46 -10 50 -18 11 -418 9 -426 -2z m280 -117 c1
-18 2 -50 3 -70 1 -36 1 -36 -44 -40 -88 -6 -90 -5 -89 65 1 34 3 65 5 68 2 3
30 7 64 8 l60 2 1 -33z m0 -235 c4 -104 7 -99 -65 -101 l-64 -1 1 68 1 69 63
-1 63 -1 1 -33z m0 -212 c0 -9 2 -33 3 -54 1 -20 -1 -42 -5 -49 -8 -12 -12
-13 -87 -24 l-42 -6 2 76 c2 84 2 84 86 77 31 -2 42 -7 43 -20z"/>
<path d="M1312 6885 l-2 -45 127 -1 128 -1 -88 -42 c-82 -40 -211 -82 -282
-93 -56 -8 -57 -9 -33 -58 12 -25 29 -45 38 -45 24 0 166 48 258 87 80 35 83
35 97 17 12 -17 12 -21 -3 -32 -57 -45 -344 -162 -397 -162 -19 0 -14 -23 17
-76 19 -33 20 -33 49 -19 16 9 29 13 29 11 0 -7 208 86 260 117 101 59 102 60
111 45 17 -26 8 -38 -78 -94 -99 -65 -193 -111 -308 -148 -44 -15 -86 -29 -93
-31 -10 -4 -10 -10 2 -32 34 -66 34 -66 106 -39 144 52 241 100 343 169 32 21
61 37 63 34 10 -10 11 -73 1 -100 -12 -37 -41 -47 -138 -47 l-81 0 7 -31 c4
-17 8 -39 9 -48 2 -13 19 -17 92 -19 49 -2 104 0 122 3 44 8 88 54 102 106 12
42 9 162 -5 225 -6 26 -3 32 18 41 25 12 27 10 56 -52 33 -71 68 -122 120
-173 37 -36 115 -92 128 -92 5 0 25 19 45 43 l36 43 -46 25 c-60 32 -141 111
-175 173 -49 87 -49 87 41 128 44 20 83 41 86 47 6 9 -40 91 -50 91 -2 0 -72
-34 -155 -76 -83 -42 -155 -72 -158 -67 -4 4 -24 32 -44 61 l-37 52 22 10 c13
5 37 18 53 29 26 18 45 21 158 21 l127 0 0 45 0 45 -338 0 -339 0 -1 -45z"/>
<path d="M3436 6445 l1 -134 -36 1 c-61 1 -61 1 -58 -44 l2 -43 510 0 510 0 0
45 0 44 -45 -1 -45 -1 2 134 1 134 -421 0 -422 0 1 -135z m252 -46 l-1 -88
-51 1 c-85 1 -82 -2 -81 92 l0 83 67 0 66 0 0 -88z m232 2 l0 -88 -65 0 -65 0
0 87 0 87 65 1 65 1 0 -88z m235 -1 l0 -85 -62 -2 c-35 0 -64 2 -64 5 -3 17
-5 158 -2 163 1 4 31 6 65 5 l63 -1 0 -85z"/>
<path d="M7966 6388 c3 -5 10 -6 15 -3 13 9 11 12 -6 12 -8 0 -12 -4 -9 -9z"/>
<path d="M8233 6375 c0 -8 4 -12 9 -9 5 3 6 10 3 15 -9 13 -12 11 -12 -6z"/>
<path d="M7776 6348 c3 -5 10 -6 15 -3 13 9 11 12 -6 12 -8 0 -12 -4 -9 -9z"/>
<path d="M6360 6305 c-7 -9 -11 -17 -9 -20 3 -2 10 5 17 15 14 24 10 26 -8 5z"/>
<path d="M6525 6310 c-3 -6 1 -7 9 -4 18 7 21 14 7 14 -6 0 -13 -4 -16 -10z"/>
<path d="M7519 6308 c-5 -18 -6 -38 -1 -34 7 8 12 36 6 36 -2 0 -4 -1 -5 -2z"/>
<path d="M6395 6291 c-3 -5 -2 -12 3 -15 5 -3 9 1 9 9 0 17 -3 19 -12 6z"/>
<path d="M8310 6286 c0 -2 8 -10 18 -17 15 -13 16 -12 3 4 -13 16 -21 21 -21
13z"/>
<path d="M8550 6286 c0 -2 8 -10 18 -17 15 -13 16 -12 3 4 -13 16 -21 21 -21
13z"/>
<path d="M8635 6279 c-4 -6 -5 -12 -2 -15 2 -3 7 2 10 11 7 17 1 20 -8 4z"/>
<path d="M8380 6276 c0 -2 8 -10 18 -17 15 -13 16 -12 3 4 -13 16 -21 21 -21
13z"/>
<path d="M7675 6261 c-3 -5 -2 -12 3 -15 5 -3 9 1 9 9 0 17 -3 19 -12 6z"/>
<path d="M6510 6251 c0 -6 4 -13 10 -16 6 -3 7 1 4 9 -7 18 -14 21 -14 7z"/>
<path d="M6205 6230 c-3 -6 1 -7 9 -4 18 7 21 14 7 14 -6 0 -13 -4 -16 -10z"/>
<path d="M7595 6171 c-3 -5 -2 -12 3 -15 5 -3 9 1 9 9 0 17 -3 19 -12 6z"/>
<path d="M8686 6148 c3 -5 10 -6 15 -3 13 9 11 12 -6 12 -8 0 -12 -4 -9 -9z"/>
<path d="M5545 6130 c-3 -6 1 -7 9 -4 18 7 21 14 7 14 -6 0 -13 -4 -16 -10z"/>
<path d="M8313 6125 c0 -8 4 -12 9 -9 5 3 6 10 3 15 -9 13 -12 11 -12 -6z"/>
<path d="M8074 6110 c0 -13 4 -16 10 -10 7 7 7 13 0 20 -6 6 -10 3 -10 -10z"/>
<path d="M8150 6111 c0 -6 4 -13 10 -16 6 -3 7 1 4 9 -7 18 -14 21 -14 7z"/>
<path d="M8656 6112 c-3 -5 1 -9 9 -9 8 0 12 4 9 9 -3 4 -7 8 -9 8 -2 0 -6 -4
-9 -8z"/>
<path d="M8479 6108 c-5 -18 -6 -38 -1 -34 7 8 12 36 6 36 -2 0 -4 -1 -5 -2z"/>
<path d="M8846 6068 c3 -5 10 -6 15 -3 13 9 11 12 -6 12 -8 0 -12 -4 -9 -9z"/>
<path d="M8206 6032 c-3 -5 1 -9 9 -9 8 0 12 4 9 9 -3 4 -7 8 -9 8 -2 0 -6 -4
-9 -8z"/>
<path d="M8870 6011 c0 -6 4 -13 10 -16 6 -3 7 1 4 9 -7 18 -14 21 -14 7z"/>
<path d="M5156 5992 c-3 -5 1 -9 9 -9 8 0 12 4 9 9 -3 4 -7 8 -9 8 -2 0 -6 -4
-9 -8z"/>
<path d="M8480 5974 c0 -5 -18 -11 -41 -11 -30 -1 -51 -9 -80 -32 -21 -18 -44
-29 -51 -25 -7 4 -8 3 -4 -4 3 -6 -3 -16 -16 -23 -12 -6 -27 -16 -32 -21 -29
-24 -127 -95 -406 -293 -200 -142 -309 -225 -317 -243 -18 -39 -263 -740 -263
-753 0 -5 -4 -8 -9 -5 -5 4 -7 -3 -4 -14 3 -12 0 -20 -8 -20 -7 0 -9 -3 -6 -7
4 -3 2 -12 -4 -20 -6 -7 -9 -13 -6 -13 3 0 -5 -30 -19 -67 -26 -71 -57 -164
-56 -173 0 -3 -6 -12 -14 -21 -8 -9 -12 -18 -9 -21 3 -2 -4 -30 -14 -60 -16
-46 -17 -58 -6 -69 7 -8 104 -144 215 -304 111 -159 204 -292 205 -293 2 -2
298 -4 658 -4 l654 0 69 50 c38 27 233 166 433 310 l365 261 53 152 c29 84 51
154 49 157 -7 6 -856 6 -862 -1 -3 -2 -25 -60 -49 -128 -23 -68 -48 -136 -54
-151 l-11 -28 -430 0 c-236 0 -430 4 -430 8 0 5 21 67 46 138 85 238 225 638
284 807 33 92 62 172 65 177 3 6 8 20 10 32 3 12 8 24 12 27 5 3 8 12 9 19 1
6 2 16 3 22 1 12 861 14 861 2 0 -5 -22 -73 -50 -151 -27 -78 -50 -144 -50
-147 0 -2 196 -3 436 -2 l436 3 54 153 53 153 -211 302 c-116 166 -214 306
-219 311 -4 4 -183 8 -398 8 -294 -1 -391 2 -391 11 0 8 -3 9 -8 1 -10 -14
-232 -15 -232 0 0 8 -2 8 -8 0 -9 -14 -184 -14 -194 1 -5 7 -8 7 -8 -1z"/>
<path d="M2115 5955 c-10 -8 -89 -215 -90 -235 0 -3 -6 -18 -12 -35 -7 -16
-57 -158 -112 -315 -54 -157 -176 -505 -270 -774 -95 -270 -170 -495 -167
-502 6 -15 403 -584 420 -602 10 -11 140 -13 664 -13 l651 0 152 108 c83 59
172 123 198 141 25 18 57 41 71 50 14 9 53 37 86 62 34 25 72 52 84 60 110 74
284 208 286 220 2 8 24 74 49 145 44 123 161 456 246 700 21 61 56 162 79 225
23 63 50 140 60 170 9 30 45 134 80 230 133 376 131 370 107 370 -214 5 -842
-1 -847 -7 -5 -4 -15 -28 -24 -53 -18 -53 -109 -313 -196 -560 -58 -165 -85
-242 -179 -512 -22 -62 -67 -192 -101 -288 -34 -96 -82 -235 -108 -307 l-46
-133 -434 0 c-384 0 -433 2 -428 15 11 29 169 480 182 520 7 22 114 328 238
680 123 352 223 641 221 643 -9 9 -849 6 -860 -3z"/>
<path d="M4990 5962 c-30 -2 -58 -9 -62 -15 -4 -7 -17 -41 -29 -77 -12 -36
-66 -191 -119 -345 -147 -418 -316 -903 -367 -1050 -24 -71 -51 -146 -58 -165
-8 -19 -37 -102 -66 -185 -28 -82 -89 -257 -135 -388 -46 -131 -84 -244 -84
-250 0 -9 35 -12 130 -11 71 0 127 -2 125 -6 -2 -4 2 -7 10 -7 8 0 12 4 10 7
-3 4 6 8 20 8 16 0 22 -5 18 -12 -5 -8 -3 -8 8 0 16 12 62 17 55 5 -3 -4 1 -8
9 -8 8 0 12 4 9 8 -3 5 11 8 30 7 21 -1 33 -5 29 -11 -4 -6 -1 -7 8 -1 21 13
119 14 119 0 0 -8 2 -8 8 0 9 14 43 14 61 0 11 -8 13 -8 7 2 -4 6 -2 12 3 12
6 0 11 -6 11 -12 0 -8 3 -9 8 -3 10 14 42 18 42 5 0 -5 5 -10 11 -10 5 0 8 4
4 9 -8 13 38 10 47 -4 5 -6 8 -6 8 3 0 6 5 12 11 12 5 0 7 -6 3 -12 -6 -9 -3
-9 9 0 18 15 41 7 31 -10 -4 -7 -2 -8 5 -4 6 4 9 11 6 16 -8 13 39 8 47 -5 5
-6 8 -6 8 3 0 6 5 12 11 12 5 0 7 -6 3 -12 -6 -10 -4 -10 7 -2 8 6 23 11 34
11 11 0 26 -5 34 -11 11 -8 13 -8 7 2 -9 16 6 16 23 0 8 -7 11 -8 8 -2 -5 8
121 11 454 11 440 0 462 1 487 20 15 11 153 109 307 218 154 110 285 203 290
208 27 22 204 146 223 156 22 12 22 14 22 326 l0 314 160 228 c87 125 165 236
172 247 7 10 33 46 56 79 36 49 42 63 34 81 -8 18 -218 324 -272 396 -10 14
-47 67 -82 117 l-63 93 -55 0 c-490 3 -1809 4 -1850 2z m1417 -684 c-24 -35
-66 -95 -93 -133 -27 -39 -56 -80 -64 -91 -15 -20 -24 -21 -393 -21 -268 0
-377 3 -374 11 2 6 23 65 46 131 24 66 47 130 52 143 l9 22 431 0 431 0 -45
-62z m-387 -1023 l0 -155 -435 0 -434 0 45 128 c26 70 51 139 56 155 l10 27
379 0 379 0 0 -155z"/>
<path d="M8230 5911 c0 -6 4 -13 10 -16 6 -3 7 1 4 9 -7 18 -14 21 -14 7z"/>
<path d="M8436 5177 c3 -10 9 -15 12 -12 3 3 0 11 -7 18 -10 9 -11 8 -5 -6z"/>
<path d="M8436 5123 c-6 -14 -5 -15 5 -6 7 7 10 15 7 18 -3 3 -9 -2 -12 -12z"/>
<path d="M6920 4150 c-9 -6 -10 -10 -3 -10 6 0 15 5 18 10 8 12 4 12 -15 0z"/>
<path d="M1075 3531 c-3 -5 -2 -12 3 -15 5 -3 9 1 9 9 0 17 -3 19 -12 6z"/>
<path d="M4193 3445 c0 -8 4 -12 9 -9 5 3 6 10 3 15 -9 13 -12 11 -12 -6z"/>
<path d="M4336 3388 c3 -5 10 -6 15 -3 13 9 11 12 -6 12 -8 0 -12 -4 -9 -9z"/>
<path d="M1510 3350 c0 -5 5 -10 11 -10 5 0 7 5 4 10 -3 6 -8 10 -11 10 -2 0
-4 -4 -4 -10z"/>
<path d="M4366 3352 c-3 -5 1 -9 9 -9 8 0 12 4 9 9 -3 4 -7 8 -9 8 -2 0 -6 -4
-9 -8z"/>
<path d="M3286 3308 c3 -5 10 -6 15 -3 13 9 11 12 -6 12 -8 0 -12 -4 -9 -9z"/>
<path d="M3616 3308 c3 -5 10 -6 15 -3 13 9 11 12 -6 12 -8 0 -12 -4 -9 -9z"/>
<path d="M2700 3296 c0 -2 8 -10 18 -17 15 -13 16 -12 3 4 -13 16 -21 21 -21
13z"/>
<path d="M3115 3291 c-3 -5 -2 -12 3 -15 5 -3 9 1 9 9 0 17 -3 19 -12 6z"/>
<path d="M2599 3278 c-5 -18 -6 -38 -1 -34 7 8 12 36 6 36 -2 0 -4 -1 -5 -2z"/>
<path d="M3073 3255 c0 -8 4 -12 9 -9 5 3 6 10 3 15 -9 13 -12 11 -12 -6z"/>
<path d="M3635 3259 c-4 -6 -5 -12 -2 -15 2 -3 7 2 10 11 7 17 1 20 -8 4z"/>
<path d="M2235 3250 c3 -5 8 -10 11 -10 2 0 4 5 4 10 0 6 -5 10 -11 10 -5 0
-7 -4 -4 -10z"/>
<path d="M1989 3233 c-13 -16 -12 -17 4 -4 16 13 21 21 13 21 -2 0 -10 -8 -17
-17z"/>
<path d="M1915 3230 c-3 -5 -1 -10 4 -10 6 0 11 5 11 10 0 6 -2 10 -4 10 -3 0
-8 -4 -11 -10z"/>
<path d="M3690 3236 c0 -2 7 -7 16 -10 8 -3 12 -2 9 4 -6 10 -25 14 -25 6z"/>
<path d="M3833 3215 c0 -8 4 -12 9 -9 5 3 6 10 3 15 -9 13 -12 11 -12 -6z"/>
<path d="M2755 3211 c-3 -5 -2 -12 3 -15 5 -3 9 1 9 9 0 17 -3 19 -12 6z"/>
<path d="M2995 3211 c-3 -5 -2 -12 3 -15 5 -3 9 1 9 9 0 17 -3 19 -12 6z"/>
<path d="M2205 3190 c-3 -6 1 -7 9 -4 18 7 21 14 7 14 -6 0 -13 -4 -16 -10z"/>
<path d="M2410 3196 c0 -2 7 -7 16 -10 8 -3 12 -2 9 4 -6 10 -25 14 -25 6z"/>
<path d="M2276 3177 c3 -10 9 -15 12 -12 3 3 0 11 -7 18 -10 9 -11 8 -5 -6z"/>
<path d="M2355 3179 c-4 -6 -5 -12 -2 -15 2 -3 7 2 10 11 7 17 1 20 -8 4z"/>
<path d="M2713 3175 c0 -8 4 -12 9 -9 5 3 6 10 3 15 -9 13 -12 11 -12 -6z"/>
<path d="M2953 3175 c0 -8 4 -12 9 -9 5 3 6 10 3 15 -9 13 -12 11 -12 -6z"/>
<path d="M3516 3157 c3 -10 9 -15 12 -12 3 3 0 11 -7 18 -10 9 -11 8 -5 -6z"/>
<path d="M2490 3156 c0 -2 7 -7 16 -10 8 -3 12 -2 9 4 -6 10 -25 14 -25 6z"/>
<path d="M2553 3143 c0 -9 4 -10 14 -2 7 6 13 12 13 14 0 1 -6 2 -13 2 -8 0
-14 -6 -14 -14z"/>
<path d="M1566 3108 c3 -5 10 -6 15 -3 13 9 11 12 -6 12 -8 0 -12 -4 -9 -9z"/>
<path d="M3170 3111 c0 -6 4 -13 10 -16 6 -3 7 1 4 9 -7 18 -14 21 -14 7z"/>
<path d="M2150 3086 c0 -2 8 -10 18 -17 15 -13 16 -12 3 4 -13 16 -21 21 -21
13z"/>
<path d="M1679 3063 c-13 -16 -12 -17 4 -4 9 7 17 15 17 17 0 8 -8 3 -21 -13z"/>
<path d="M1873 3045 c0 -8 4 -12 9 -9 5 3 6 10 3 15 -9 13 -12 11 -12 -6z"/>
</g>
</svg>
